<svg width="100" height="100" viewBox="0 0 100 100" fill="none" xmlns="http://www.w3.org/2000/svg">
<mask id="mask0" mask-type="alpha" maskUnits="userSpaceOnUse" x="0" y="0" width="100" height="100">
<rect width="100" height="100" fill="#C4C4C4"/>
</mask>
<g mask="url(#mask0)">
<path d="M32 20L39.8 25.6C38.3333 27.4667 36.6667 30.1333 34.8 33.6C33.0667 37.0667 31.5333 40.9333 30.2 45.2C28.8667 49.3333 28.2667 53.3333 28.4 57.2C29.3333 56.9333 30.0667 56.8 30.6 56.8C31.2667 56.6667 31.9333 56.6 32.6 56.6C36.2 56.6 39.4 57.6667 42.2 59.8C45 61.9333 46.4 65.2667 46.4 69.8C46.4 73.8 45.0667 77.3333 42.4 80.4C39.8667 83.3333 36.4 84.8 32 84.8C25.8667 84.9333 21.2667 83 18.2 79C15.1333 74.8667 13.6 69.8 13.6 63.8C13.6 57.4 15.0667 50.4667 18 43C21.0667 35.4 25.7333 27.7333 32 20ZM72 20L79.8 25.6C78.3333 27.4667 76.6667 30.1333 74.8 33.6C73.0667 37.0667 71.5333 40.9333 70.2 45.2C68.8667 49.3333 68.2667 53.3333 68.4 57.2C69.3333 56.9333 70.0667 56.8 70.6 56.8C71.2667 56.6667 71.9333 56.6 72.6 56.6C76.2 56.6 79.4 57.6667 82.2 59.8C85 61.9333 86.4 65.2667 86.4 69.8C86.4 73.8 85.0667 77.3333 82.4 80.4C79.8667 83.3333 76.4 84.8 72 84.8C65.8667 84.9333 61.2667 83 58.2 79C55.1333 74.8667 53.6 69.8 53.6 63.8C53.6 57.4 55.0667 50.4667 58 43C61.0667 35.4 65.7333 27.7333 72 20Z" fill="#EFEDF3"/>
</g>
</svg>
