<svg width="58" height="58" viewBox="0 0 58 58" fill="none" xmlns="http://www.w3.org/2000/svg">
<path d="M52.9023 11.9512C51.9362 11.9512 44.1027 11.9512 42.707 11.9512V6.85352C42.707 4.04267 40.4202 1.75586 37.6094 1.75586H20.3906C17.5798 1.75586 15.293 4.04267 15.293 6.85352V11.9512C14.0118 11.9512 6.14483 11.9512 5.09766 11.9512C2.28681 11.9512 0 14.238 0 17.0488C0 18.3197 0 49.7265 0 51.1465C0 53.9573 2.28681 56.2441 5.09766 56.2441C7.60887 56.2441 50.9293 56.2441 52.9023 56.2441C55.7132 56.2441 58 53.9573 58 51.1465C58 49.8756 58 18.4688 58 17.0488C58 14.238 55.7132 11.9512 52.9023 11.9512ZM18.6914 6.85352C18.6914 5.91657 19.4537 5.1543 20.3906 5.1543H37.6094C38.5463 5.1543 39.3086 5.91657 39.3086 6.85352V11.9512H18.6914V6.85352ZM3.39844 17.0488C3.39844 16.1119 4.16071 15.3496 5.09766 15.3496H10.1953V17.0488C10.1953 19.8597 7.9085 22.1465 5.09766 22.1465H3.39844V17.0488ZM10.1953 52.8457H5.09766C4.16071 52.8457 3.39844 52.0834 3.39844 51.1465V46.0488H5.09766C7.9085 46.0488 10.1953 48.3356 10.1953 51.1465V52.8457ZM54.6016 51.1465C54.6016 52.0834 53.8393 52.8457 52.9023 52.8457H47.8047V51.1465C47.8047 48.3356 50.0915 46.0488 52.9023 46.0488H54.6016V51.1465ZM54.6016 42.6504H52.9023C48.2176 42.6504 44.4062 46.4617 44.4062 51.1465V52.8457H13.5938V51.1465C13.5938 46.4617 9.7824 42.6504 5.09766 42.6504H3.39844V25.5449H5.09766C9.7824 25.5449 13.5938 21.7336 13.5938 17.0488V15.3496H44.4062V17.0488C44.4062 21.7336 48.2176 25.5449 52.9023 25.5449H54.6016V42.6504ZM54.6016 22.1465H52.9023C50.0915 22.1465 47.8047 19.8597 47.8047 17.0488V15.3496H52.9023C53.8393 15.3496 54.6016 16.1119 54.6016 17.0488V22.1465Z" fill="white"/>
<path d="M40.6177 26.3025C39.1924 24.7182 37.2188 23.8457 35.0605 23.8457C32.6683 23.8457 30.5736 24.9506 29 27.042C27.4264 24.9506 25.3317 23.8457 22.9395 23.8457C20.7812 23.8457 18.8076 24.7182 17.3823 26.3025C16.035 27.8 15.293 29.7985 15.293 31.9299C15.293 36.7876 19.3057 40.1403 24.8597 44.7806C25.8302 45.5915 26.8338 46.4301 27.8941 47.3389C28.2124 47.6115 28.6061 47.7479 29 47.7479C29.3939 47.7479 29.7876 47.6115 30.1059 47.3389C31.1663 46.43 32.1699 45.5914 33.1405 44.7804C38.6944 40.1403 42.707 36.7875 42.707 31.9299C42.707 29.7986 41.965 27.8001 40.6177 26.3025ZM30.9616 42.1726C30.3247 42.7047 29.6737 43.2486 29 43.8179C28.3263 43.2486 27.6755 42.7048 27.0386 42.1727C22.0121 37.973 18.6914 35.1985 18.6914 31.9299C18.6914 29.2585 20.5177 27.2441 22.9395 27.2441C26.1114 27.2441 27.319 30.9611 27.3753 31.1402C27.594 31.854 28.253 32.3418 29 32.3418C29.7491 32.3418 30.4098 31.8513 30.6265 31.1342C30.6383 31.0952 31.8395 27.2441 35.0605 27.2441C37.4823 27.2441 39.3086 29.2585 39.3086 31.9299C39.3086 35.1985 35.988 37.973 30.9616 42.1726Z" fill="white"/>
</svg>
