<svg width="1638" height="726" viewBox="0 0 1638 726" fill="none" xmlns="http://www.w3.org/2000/svg">
<path fill-rule="evenodd" clip-rule="evenodd" d="M555.367 373.724C575.364 343.701 593.275 315.966 609.78 290.347C611.05 288.377 612.311 286.419 613.564 284.473L613.573 284.46L613.577 284.453L613.587 284.438L613.594 284.427C628.623 261.095 642.497 239.554 655.756 219.663C684.503 176.535 710.331 141.194 738.69 112.21C795.362 54.2873 862.212 21.6741 982.878 3.24836C1042.92 -5.9195 1089.75 21.7928 1129.34 67.4073C1168.95 113.046 1201.22 176.496 1232.11 238.561C1233.46 241.272 1234.81 243.98 1236.15 246.684L1236.24 246.855C1265.61 305.945 1293.98 363.006 1326.5 401.065C1343.52 420.994 1361.73 435.774 1381.88 442.894C1402.06 450.023 1424.1 449.446 1448.72 438.795C1480.64 424.986 1501.71 410.265 1515.48 394.989C1514.52 402.454 1514.38 410.054 1514.62 417.734C1511.59 424.45 1509.72 431.337 1508.63 438.35C1495.1 454.024 1473.87 469.214 1440.9 483.482C1416.59 493.999 1394.93 494.533 1375.15 487.543C1355.34 480.544 1337.34 465.976 1320.4 446.154C1288.01 408.241 1259.72 351.333 1230.3 292.16L1229.39 290.323C1228.33 288.203 1227.28 286.081 1226.22 283.956C1195.35 221.927 1163 158.296 1123.24 112.487C1083.46 66.6548 1036.16 38.5544 975.419 47.8288C854.536 66.2877 787.349 99.0035 730.385 157.224C701.926 186.312 676.035 221.747 647.275 264.894C634.001 284.808 620.111 306.373 605.074 329.72L605.051 329.754C603.805 331.69 602.55 333.638 601.287 335.598C584.782 361.216 566.876 388.943 546.886 418.956C483.098 514.724 383.696 543.19 285.221 539.818C186.728 536.445 89.2718 501.216 29.6296 469.734L28.9294 471.061C88.7142 502.618 186.393 537.934 285.169 541.317C383.962 544.7 483.962 516.134 548.134 419.787C568.131 389.764 586.043 362.029 602.548 336.41L606.339 330.525L606.343 330.519L606.35 330.508C621.383 307.169 635.261 285.623 648.523 265.726C677.271 222.598 703.099 187.258 731.457 158.273C788.13 100.351 854.979 67.7374 975.645 49.3116C1035.68 40.1438 1082.51 67.8561 1122.11 113.471C1161.72 159.109 1193.99 222.559 1224.88 284.624C1226.23 287.335 1227.57 290.043 1228.92 292.747L1229 292.918C1258.38 352.008 1286.75 409.07 1319.26 447.129C1336.29 467.057 1354.5 481.837 1374.65 488.957C1394.82 496.086 1416.87 495.51 1441.49 484.858C1473.41 471.049 1494.48 456.328 1508.24 441.052C1507.29 448.518 1507.15 456.118 1507.38 463.797C1504.36 470.513 1502.49 477.4 1501.4 484.413C1487.86 500.088 1466.64 515.277 1433.66 529.545C1409.35 540.062 1387.7 540.596 1367.92 533.606C1348.11 526.608 1330.1 512.039 1313.17 492.218C1280.78 454.304 1252.49 397.396 1223.07 338.223L1222.16 336.387C1221.1 334.267 1220.05 332.144 1218.99 330.019C1188.12 267.99 1155.77 204.359 1116.01 158.551C1076.22 112.718 1028.92 84.6176 968.187 93.8921C847.303 112.351 780.117 145.067 723.153 203.288C694.693 232.375 668.803 267.81 640.043 310.958C626.769 330.872 612.879 352.436 597.841 375.783L597.819 375.817C596.572 377.753 595.317 379.701 594.055 381.661C577.55 407.28 559.644 435.006 539.654 465.019C475.866 560.788 376.464 589.254 277.988 585.881C179.496 582.508 82.0395 547.279 22.3973 515.797L21.6971 517.124C81.4819 548.681 179.161 583.997 277.937 587.38C376.73 590.764 476.73 562.197 540.902 465.851C560.899 435.828 578.811 408.093 595.316 382.474L599.108 376.586L599.111 376.581C614.147 353.238 628.027 331.689 641.291 311.789C670.038 268.661 695.866 233.321 724.225 204.337C780.897 146.414 847.747 113.801 968.413 95.3749C1028.45 86.207 1075.28 113.919 1114.87 159.534C1154.49 205.172 1186.76 268.622 1217.65 330.688C1218.99 333.398 1220.34 336.107 1221.69 338.81L1221.77 338.982C1251.15 398.071 1279.52 455.133 1312.03 493.192C1329.06 513.121 1347.27 527.901 1367.42 535.021C1387.59 542.149 1409.64 541.573 1434.26 530.922C1466.18 517.112 1487.25 502.391 1501.01 487.116C1499.56 498.48 1500 510.156 1500.76 521.951C1487.9 540.643 1465.36 558.768 1426.43 575.608C1402.12 586.125 1380.47 586.659 1360.68 579.669C1340.88 572.671 1322.87 558.103 1305.94 538.281C1273.55 500.368 1245.26 443.459 1215.84 384.287L1213.59 379.772C1212.98 378.543 1212.37 377.313 1211.76 376.083C1180.89 314.054 1148.54 250.422 1108.77 204.614C1068.99 158.781 1021.69 130.681 960.954 139.955C840.071 158.414 772.884 191.13 715.92 249.351C687.461 278.438 661.571 313.874 632.811 357.021C619.537 376.935 605.647 398.5 590.609 421.846L586.822 427.725C570.318 453.343 552.412 481.07 532.421 511.082C468.634 606.851 369.232 635.317 270.756 631.944C172.264 628.571 74.8071 593.343 15.1649 561.861L14.4647 563.187C74.2495 594.744 171.928 630.061 270.705 633.443C369.498 636.827 469.497 608.26 533.67 511.914C553.667 481.891 571.578 454.156 588.083 428.537C589.353 426.566 590.614 424.608 591.867 422.663L591.877 422.648L591.878 422.646L591.889 422.629C606.921 399.292 620.798 377.748 634.059 357.853C662.806 314.724 688.634 279.384 716.993 250.4C773.665 192.477 840.514 159.864 961.18 141.438C1021.22 132.27 1068.05 159.983 1107.64 205.597C1147.26 251.236 1179.53 314.685 1210.41 376.751C1211.12 378.171 1211.83 379.589 1212.53 381.007L1214.54 385.045C1243.92 444.135 1272.28 501.196 1304.8 539.255C1321.82 559.184 1340.03 573.964 1360.18 581.084C1380.36 588.213 1402.41 587.636 1427.03 576.985C1465.06 560.529 1487.69 542.778 1500.92 524.337C1500.98 525.32 1501.05 526.304 1501.12 527.289L1501.25 529.149C1501.77 536.608 1502.29 544.101 1502.44 551.597C1502.16 552.282 1501.87 552.967 1501.57 553.651C1491.08 577.4 1468.03 600.547 1419.2 621.672C1394.89 632.188 1373.23 632.723 1353.45 625.733C1333.64 618.734 1315.64 604.166 1298.71 584.344C1266.32 546.431 1238.02 489.522 1208.6 430.35C1207.25 427.619 1205.89 424.884 1204.52 422.146C1173.65 360.117 1141.3 296.486 1101.54 250.677C1061.76 204.845 1014.46 176.744 953.722 186.019C832.838 204.477 765.652 237.193 708.688 295.414C680.229 324.502 654.338 359.937 625.578 403.084C612.304 422.998 598.414 444.563 583.376 467.909C582.122 469.856 580.86 471.816 579.59 473.788C563.085 499.406 545.179 527.133 525.189 557.146C461.401 652.914 361.999 681.38 263.524 678.008C165.031 674.634 67.5747 639.406 7.93256 607.924L7.23235 609.25C67.0171 640.808 164.696 676.124 263.472 679.507C362.265 682.89 462.265 654.324 526.437 557.977C546.434 527.954 564.346 500.219 580.851 474.6L584.635 468.726L584.645 468.711L584.646 468.709C599.682 445.366 613.562 423.816 626.826 403.916C655.574 360.788 681.402 325.447 709.76 296.463C766.433 238.54 833.282 205.927 953.948 187.501C1013.99 178.334 1060.82 206.046 1100.41 251.66C1140.02 297.299 1172.29 360.749 1203.18 422.814C1204.56 425.582 1205.93 428.347 1207.31 431.108C1236.68 490.198 1265.05 547.259 1297.57 585.318C1314.59 605.247 1332.8 620.027 1352.95 627.147C1373.13 634.276 1395.17 633.699 1419.79 623.048C1468.14 602.135 1491.59 579.129 1502.48 555.275C1502.51 570.19 1500.79 585.091 1494.33 599.714C1483.85 623.463 1460.8 646.61 1411.97 667.735C1387.66 678.252 1366 678.786 1346.22 671.796C1326.41 664.797 1308.41 650.229 1291.47 630.407C1259.08 592.494 1230.79 535.586 1201.37 476.413C1200.01 473.683 1198.65 470.948 1197.29 468.209C1166.42 406.18 1134.07 342.549 1094.31 296.74C1054.53 250.908 1007.23 222.807 946.489 232.082C825.606 250.541 758.42 283.256 701.456 341.477C672.996 370.565 647.106 406 618.346 449.147C605.072 469.061 591.182 490.626 576.144 513.973C574.89 515.92 573.628 517.879 572.357 519.851C555.853 545.469 537.947 573.196 517.956 603.209C454.169 698.977 354.767 727.443 256.291 724.071C157.799 720.698 60.3424 685.469 0.700211 653.987L0 655.314C59.7848 686.871 157.464 722.187 256.24 725.57C355.033 728.953 455.033 700.387 519.205 604.04C539.202 574.017 557.114 546.282 573.618 520.663C574.714 518.963 575.803 517.273 576.886 515.591L577.409 514.778C592.447 491.432 606.329 469.881 619.594 449.979C648.341 406.851 674.169 371.511 702.528 342.526C759.2 284.604 826.05 251.99 946.716 233.565C1006.75 224.397 1053.58 252.109 1093.18 297.724C1132.79 343.362 1165.06 406.812 1195.95 468.878C1197.33 471.645 1198.7 474.411 1200.07 477.171C1229.45 536.261 1257.82 593.323 1290.33 631.382C1307.36 651.31 1325.57 666.09 1345.72 673.21C1365.9 680.339 1387.94 679.763 1412.56 669.112C1461.59 647.9 1485.01 624.538 1495.71 600.32C1502.76 584.335 1504.24 568.034 1503.95 551.875C1510.14 536.655 1511.46 521.169 1511.18 505.812C1517.37 490.592 1518.69 475.106 1518.41 459.749C1520.66 454.215 1522.27 448.647 1523.39 443.063C1538.02 427.889 1562.02 413.948 1601 401.858L1600.56 400.425C1562.81 412.134 1538.87 425.627 1523.88 440.43C1525.43 431.523 1525.81 422.583 1525.64 413.685C1527.89 408.152 1529.5 402.584 1530.62 397C1545.25 381.826 1569.25 367.885 1608.24 355.795L1607.79 354.362C1570.04 366.071 1546.11 379.564 1531.11 394.366C1532.66 385.46 1533.04 376.519 1532.88 367.622C1535.13 362.089 1536.73 356.521 1537.85 350.936C1552.48 335.763 1576.49 321.822 1615.47 309.732L1615.02 308.299C1577.27 320.007 1553.34 333.501 1538.35 348.303C1540.51 335.874 1540.38 323.38 1539.71 311.027C1553.56 293.462 1578.5 277.376 1622.7 263.668L1622.26 262.236C1579 275.651 1553.89 291.41 1539.58 308.795C1539.38 305.467 1539.15 302.151 1538.92 298.85L1538.78 296.869C1538.38 291.138 1538 285.457 1537.82 279.842C1538.67 277.996 1539.6 276.164 1540.62 274.346C1552.63 253.12 1577.98 233.719 1629.93 217.605L1629.49 216.172C1577.38 232.334 1551.6 251.897 1539.32 273.608C1538.77 274.584 1538.24 275.565 1537.74 276.549C1537.46 259.713 1539.26 243.489 1547.86 228.283C1559.86 207.057 1585.21 187.656 1637.17 171.542L1636.72 170.109C1584.61 186.271 1558.83 205.833 1546.55 227.544C1537.26 243.971 1535.77 261.538 1536.31 279.544C1529.7 294.239 1528.6 309.753 1529.08 325.607C1522.47 340.302 1521.37 355.816 1521.85 371.67C1518.83 378.387 1516.96 385.274 1515.86 392.286C1502.33 407.961 1481.11 423.151 1448.13 437.419C1423.82 447.935 1402.16 448.47 1382.38 441.48C1362.57 434.481 1344.57 419.913 1327.64 400.091C1295.25 362.178 1266.95 305.269 1237.53 246.097L1235.03 241.063C1234.51 240.007 1233.98 238.95 1233.45 237.893C1202.58 175.864 1170.23 112.233 1130.47 66.4241C1090.69 20.5916 1043.39 -7.50889 982.651 1.76554C861.768 20.2245 794.581 52.9402 737.617 111.161C709.158 140.249 683.268 175.684 654.508 218.831C641.234 238.745 627.344 260.31 612.306 283.656C611.052 285.603 609.79 287.563 608.519 289.535C592.015 315.153 574.109 342.88 554.118 372.893C490.331 468.661 390.929 497.127 292.453 493.755C193.961 490.381 96.5042 455.153 36.862 423.671L36.1618 424.997C95.9466 456.555 193.625 491.871 292.402 495.254C391.195 498.637 491.194 470.071 555.367 373.724ZM1522 442.338C1523.65 433.957 1524.19 425.523 1524.18 417.085C1522.16 421.503 1519.71 425.893 1516.75 430.245C1516.86 431.845 1516.97 433.45 1517.08 435.059L1517.22 437.039C1517.45 440.341 1517.68 443.657 1517.88 446.985C1519.17 445.423 1520.54 443.874 1522 442.338ZM1516.48 448.738C1516.26 444.827 1515.99 440.922 1515.71 437.025L1515.71 437.023L1515.58 435.163C1515.51 434.178 1515.45 433.194 1515.38 432.211C1513.75 434.486 1511.97 436.751 1510.04 439.004C1508.97 446.129 1508.69 453.407 1508.81 460.803C1509.31 459.818 1509.84 458.837 1510.39 457.861C1512.13 454.775 1514.15 451.733 1516.48 448.738ZM1508.89 464.095C1509.74 462.249 1510.67 460.417 1511.69 458.599C1513.13 456.058 1514.76 453.543 1516.6 451.057C1516.74 453.86 1516.85 456.665 1516.91 459.471C1516.62 460.156 1516.33 460.84 1516.03 461.524C1514.21 465.648 1512.01 469.753 1509.36 473.832C1509.16 470.567 1509 467.32 1508.89 464.095ZM1507.52 467.33C1505.59 472.179 1504.23 477.119 1503.3 482.138C1504.99 480.063 1506.55 477.979 1507.99 475.888C1507.81 473.028 1507.64 470.174 1507.52 467.33ZM1502.81 485.067C1501.1 496.34 1501.41 507.994 1502.13 519.895C1504.78 515.816 1506.98 511.711 1508.8 507.588C1509.1 506.904 1509.39 506.219 1509.67 505.534C1509.53 498.038 1509 490.545 1508.48 483.086L1508.31 480.62C1508.25 479.838 1508.2 479.056 1508.15 478.274C1506.52 480.549 1504.74 482.814 1502.81 485.067ZM1502.29 522.371C1502.39 523.972 1502.5 525.576 1502.61 527.185L1502.75 529.166C1503.19 535.382 1503.63 541.653 1503.84 547.95C1508.44 535.164 1509.73 522.194 1509.71 509.212C1507.69 513.63 1505.25 518.019 1502.29 522.371ZM1518.01 449.217C1519.07 447.868 1520.2 446.528 1521.4 445.197C1520.59 448.751 1519.58 452.295 1518.31 455.824C1518.23 453.618 1518.13 451.415 1518.01 449.217ZM1510.54 436.075C1511.46 431.056 1512.82 426.116 1514.75 421.267C1514.87 424.11 1515.04 426.964 1515.22 429.825C1513.78 431.916 1512.23 433.999 1510.54 436.075ZM1509.85 481.122C1509.74 479.513 1509.63 477.908 1509.52 476.308C1512.48 471.956 1514.93 467.567 1516.95 463.149C1516.97 476.13 1515.67 489.101 1511.08 501.887C1510.86 495.59 1510.42 489.319 1509.99 483.103L1509.85 481.122ZM1518.93 412.536C1517.9 414.353 1516.97 416.185 1516.13 418.031C1516.23 421.257 1516.4 424.503 1516.6 427.768C1519.24 423.689 1521.44 419.584 1523.26 415.461C1523.56 414.777 1523.86 414.092 1524.14 413.407C1524.08 410.602 1523.98 407.797 1523.83 404.993C1521.99 407.48 1520.36 409.995 1518.93 412.536ZM1517.62 411.797C1519.37 408.712 1521.38 405.67 1523.71 402.674C1523.49 398.764 1523.22 394.858 1522.95 390.962L1522.95 390.959L1522.82 389.099C1522.75 388.115 1522.68 387.131 1522.61 386.147C1520.98 388.423 1519.21 390.687 1517.28 392.941C1516.2 400.066 1515.92 407.343 1516.05 414.739C1516.54 413.755 1517.07 412.774 1517.62 411.797ZM1525.54 409.761C1525.46 407.555 1525.36 405.352 1525.24 403.154C1526.31 401.805 1527.43 400.465 1528.63 399.134C1527.83 402.688 1526.81 406.231 1525.54 409.761ZM1525.11 400.922C1526.4 399.359 1527.77 397.81 1529.24 396.275C1530.88 387.894 1531.42 379.46 1531.41 371.022C1529.39 375.44 1526.94 379.829 1523.99 384.181C1524.04 385.037 1524.1 385.895 1524.16 386.753C1524.21 387.5 1524.26 388.247 1524.31 388.995L1524.45 390.976C1524.68 394.277 1524.91 397.594 1525.11 400.922ZM1517.77 390.012C1518.69 384.992 1520.05 380.052 1521.98 375.203C1522.1 378.047 1522.27 380.901 1522.45 383.762C1521.02 385.852 1519.46 387.936 1517.77 390.012ZM1523.36 371.968C1523.46 375.193 1523.63 378.44 1523.83 381.705C1526.48 377.626 1528.67 373.521 1530.49 369.398C1530.63 369.081 1530.77 368.765 1530.91 368.448C1530.99 368.252 1531.07 368.056 1531.16 367.86C1531.19 367.769 1531.23 367.679 1531.27 367.589L1531.37 367.344C1531.32 364.539 1531.21 361.734 1531.07 358.93C1529.22 361.417 1527.6 363.931 1526.16 366.472C1525.13 368.29 1524.2 370.122 1523.36 371.968ZM1532.47 357.091C1532.59 359.289 1532.7 361.492 1532.77 363.698C1534.04 360.168 1535.06 356.624 1535.86 353.07C1534.67 354.401 1533.54 355.742 1532.47 357.091ZM1536.47 350.212C1535 351.747 1533.63 353.296 1532.35 354.859C1532.15 351.531 1531.91 348.214 1531.68 344.913L1531.54 342.932C1531.15 337.202 1530.77 331.521 1530.59 325.905C1531.43 324.059 1532.36 322.227 1533.39 320.409C1534.83 317.868 1536.46 315.353 1538.3 312.867C1538.92 325.327 1538.9 337.827 1536.47 350.212ZM1530.94 356.611C1528.62 359.607 1526.6 362.649 1524.85 365.734C1524.3 366.711 1523.78 367.691 1523.28 368.676C1523.05 355.022 1524.19 341.772 1529.21 329.14C1529.41 333.751 1529.72 338.386 1530.05 343.036L1530.18 344.896C1530.45 348.793 1530.72 352.7 1530.94 356.611ZM1537.41 298.849C1537.68 302.741 1537.96 306.642 1538.18 310.548C1535.85 313.543 1533.83 316.585 1532.09 319.671C1531.53 320.648 1531.01 321.628 1530.51 322.613C1530.28 308.959 1531.42 295.709 1536.44 283.077C1536.65 287.687 1536.96 292.323 1537.28 296.973L1537.41 298.833L1537.41 298.849Z" fill="white"/>
</svg>
